<svg width="32" height="32" viewBox="0 0 32 32" fill="none" xmlns="http://www.w3.org/2000/svg">
  <rect width="32" height="32" rx="6" fill="#3b82f6"/>
  <path d="M8 12h16v12H8V12z" fill="white"/>
  <path d="M10 14h4v2h-4v-2z" fill="#3b82f6"/>
  <path d="M10 17h4v2h-4v-2z" fill="#3b82f6"/>
  <path d="M10 20h4v2h-4v-2z" fill="#3b82f6"/>
  <path d="M16 14h4v2h-4v-2z" fill="#3b82f6"/>
  <path d="M16 17h4v2h-4v-2z" fill="#3b82f6"/>
  <path d="M16 20h4v2h-4v-2z" fill="#3b82f6"/>
  <path d="M8 10h16v2H8v-2z" fill="white"/>
  <circle cx="12" cy="11" r="1" fill="#3b82f6"/>
  <circle cx="16" cy="11" r="1" fill="#3b82f6"/>
  <circle cx="20" cy="11" r="1" fill="#3b82f6"/>
</svg>
